FrauncesItalic-BlackOpMin.ufo
<glyph name="one" format="2">
  <advance width="954"/>
  <unicode hex="0031"/>
  <outline>
    <contour>
      <point x="376.0" y="1088.0" type="line" smooth="yes"/>
      <point x="312.0" y="1088.0"/>
      <point x="288.0" y="1124.0"/>
      <point x="306.0" y="1174.0" type="curve" smooth="yes"/>
      <point x="318.0" y="1224.0"/>
      <point x="366.0" y="1262.0"/>
      <point x="428.0" y="1262.0" type="curve" smooth="yes"/>
      <point x="476.0" y="1262.0" type="line" smooth="yes"/>
      <point x="620.0" y="1262.0"/>
      <point x="732.0" y="1262.0"/>
      <point x="834.0" y="1324.0" type="curve" smooth="yes"/>
      <point x="878.0" y="1350.0"/>
      <point x="908.0" y="1362.0"/>
      <point x="954.0" y="1362.0" type="curve" smooth="yes"/>
      <point x="1012.0" y="1362.0"/>
      <point x="1038.0" y="1332.0"/>
      <point x="1018.0" y="1260.0" type="curve" smooth="yes"/>
      <point x="776.0" y="360.0" type="line" smooth="yes"/>
      <point x="752.0" y="262.0"/>
      <point x="774.0" y="192.0"/>
      <point x="824.0" y="180.0" type="curve" smooth="yes"/>
      <point x="824.0" y="170.0" type="line" smooth="yes"/>
      <point x="876.0" y="160.0"/>
      <point x="912.0" y="138.0"/>
      <point x="900.0" y="88.0" type="curve" smooth="yes"/>
      <point x="882.0" y="28.0"/>
      <point x="844.0" y="0.0"/>
      <point x="780.0" y="0.0" type="curve" smooth="yes"/>
      <point x="134.0" y="0.0" type="line" smooth="yes"/>
      <point x="74.0" y="0.0"/>
      <point x="46.0" y="28.0"/>
      <point x="62.0" y="90.0" type="curve" smooth="yes"/>
      <point x="74.0" y="142.0"/>
      <point x="120.0" y="162.0"/>
      <point x="184.0" y="176.0" type="curve" smooth="yes"/>
      <point x="180.0" y="186.0" type="line" smooth="yes"/>
      <point x="252.0" y="202.0"/>
      <point x="318.0" y="260.0"/>
      <point x="342.0" y="360.0" type="curve" smooth="yes"/>
      <point x="486.0" y="892.0" type="line" smooth="yes"/>
      <point x="522.0" y="1030.0"/>
      <point x="484.0" y="1088.0"/>
      <point x="394.0" y="1088.0" type="curve" smooth="yes"/>
    </contour>
  </outline>
</glyph>
<glyph name="C" format="2">
  <advance width="1312"/>
  <unicode hex="0043"/>
  <outline>
    <contour>
      <point x="1414.0" y="380.0" type="curve" smooth="yes"/>
      <point x="1414.0" y="446.0"/>
      <point x="1382.0" y="478.0"/>
      <point x="1330.0" y="478.0" type="curve" smooth="yes"/>
      <point x="1268.0" y="478.0"/>
      <point x="1214.0" y="448.0"/>
      <point x="1144.0" y="346.0" type="curve" smooth="yes"/>
      <point x="1098.0" y="282.0"/>
      <point x="1036.0" y="254.0"/>
      <point x="970.0" y="254.0" type="curve" smooth="yes"/>
      <point x="830.0" y="254.0"/>
      <point x="726.0" y="388.0"/>
      <point x="726.0" y="610.0" type="curve" smooth="yes"/>
      <point x="726.0" y="934.0"/>
      <point x="902.0" y="1236.0"/>
      <point x="1090.0" y="1236.0" type="curve" smooth="yes"/>
      <point x="1206.0" y="1236.0"/>
      <point x="1270.0" y="1194.0"/>
      <point x="1312.0" y="1044.0" type="curve" smooth="yes"/>
      <point x="1312.0" y="1006.0" type="line" smooth="yes"/>
      <point x="1346.0" y="910.0"/>
      <point x="1400.0" y="860.0"/>
      <point x="1482.0" y="860.0" type="curve" smooth="yes"/>
      <point x="1542.0" y="860.0"/>
      <point x="1590.0" y="912.0"/>
      <point x="1584.0" y="1034.0" type="curve" smooth="yes"/>
      <point x="1566.0" y="1282.0" type="line" smooth="yes"/>
      <point x="1560.0" y="1380.0"/>
      <point x="1536.0" y="1438.0"/>
      <point x="1486.0" y="1438.0" type="curve" smooth="yes"/>
      <point x="1436.0" y="1438.0"/>
      <point x="1396.0" y="1388.0"/>
      <point x="1340.0" y="1388.0" type="curve" smooth="yes"/>
      <point x="1296.0" y="1388.0"/>
      <point x="1222.0" y="1430.0"/>
      <point x="1104.0" y="1430.0" type="curve" smooth="yes"/>
      <point x="542.0" y="1430.0"/>
      <point x="194.0" y="1012.0"/>
      <point x="194.0" y="504.0" type="curve" smooth="yes"/>
      <point x="194.0" y="184.0"/>
      <point x="424.0" y="-30.0"/>
      <point x="782.0" y="-30.0" type="curve" smooth="yes"/>
      <point x="1064.0" y="-30.0"/>
      <point x="1292.0" y="78.0"/>
      <point x="1372.0" y="252.0" type="curve" smooth="yes"/>
      <point x="1400.0" y="312.0"/>
      <point x="1414.0" y="340.0"/>
    </contour>
  </outline>
</glyph>
<glyph name="H" format="2">
  <advance width="1760"/>
  <unicode hex="0048"/>
  <outline>
    <contour>
      <point x="616.0" y="780.0" type="line"/>
      <point x="532.0" y="564.0" type="line"/>
      <point x="1298.0" y="564.0" type="line"/>
      <point x="1382.0" y="780.0" type="line"/>
    </contour>
    <contour>
      <point x="638.0" y="278.0" type="curve" smooth="yes"/>
      <point x="646.0" y="326.0"/>
      <point x="738.0" y="780.0"/>
      <point x="852.0" y="1100.0" type="curve" smooth="yes"/>
      <point x="872.0" y="1154.0"/>
      <point x="894.0" y="1178.0"/>
      <point x="918.0" y="1184.0" type="curve" smooth="yes"/>
      <point x="956.0" y="1194.0" type="line" smooth="yes"/>
      <point x="1012.0" y="1206.0"/>
      <point x="1048.0" y="1246.0"/>
      <point x="1048.0" y="1304.0" type="curve" smooth="yes"/>
      <point x="1048.0" y="1360.0"/>
      <point x="1006.0" y="1400.0"/>
      <point x="934.0" y="1400.0" type="curve" smooth="yes"/>
      <point x="338.0" y="1400.0" type="line" smooth="yes"/>
      <point x="278.0" y="1400.0"/>
      <point x="240.0" y="1348.0"/>
      <point x="240.0" y="1286.0" type="curve" smooth="yes"/>
      <point x="240.0" y="1234.0"/>
      <point x="270.0" y="1204.0"/>
      <point x="324.0" y="1192.0" type="curve" smooth="yes"/>
      <point x="342.0" y="1188.0" type="line" smooth="yes"/>
      <point x="378.0" y="1182.0"/>
      <point x="390.0" y="1158.0"/>
      <point x="386.0" y="1124.0" type="curve" smooth="yes"/>
      <point x="380.0" y="1074.0"/>
      <point x="262.0" y="588.0"/>
      <point x="178.0" y="306.0" type="curve" smooth="yes"/>
      <point x="162.0" y="252.0"/>
      <point x="138.0" y="230.0"/>
      <point x="96.0" y="220.0" type="curve" smooth="yes"/>
      <point x="64.0" y="212.0" type="line" smooth="yes"/>
      <point x="14.0" y="200.0"/>
      <point x="-20.0" y="156.0"/>
      <point x="-20.0" y="98.0" type="curve" smooth="yes"/>
      <point x="-20.0" y="42.0"/>
      <point x="16.0" y="0.0"/>
      <point x="78.0" y="0.0" type="curve" smooth="yes"/>
      <point x="662.0" y="0.0" type="line" smooth="yes"/>
      <point x="748.0" y="0.0"/>
      <point x="792.0" y="44.0"/>
      <point x="792.0" y="112.0" type="curve" smooth="yes"/>
      <point x="792.0" y="162.0"/>
      <point x="762.0" y="196.0"/>
      <point x="722.0" y="212.0" type="curve" smooth="yes"/>
      <point x="678.0" y="230.0" type="line" smooth="yes"/>
      <point x="654.0" y="240.0"/>
      <point x="634.0" y="256.0"/>
    </contour>
    <contour>
      <point x="1490.0" y="278.0" type="curve" smooth="yes"/>
      <point x="1498.0" y="326.0"/>
      <point x="1590.0" y="780.0"/>
      <point x="1704.0" y="1100.0" type="curve" smooth="yes"/>
      <point x="1724.0" y="1154.0"/>
      <point x="1746.0" y="1178.0"/>
      <point x="1770.0" y="1184.0" type="curve" smooth="yes"/>
      <point x="1808.0" y="1194.0" type="line" smooth="yes"/>
      <point x="1864.0" y="1206.0"/>
      <point x="1900.0" y="1246.0"/>
      <point x="1900.0" y="1304.0" type="curve" smooth="yes"/>
      <point x="1900.0" y="1360.0"/>
      <point x="1858.0" y="1400.0"/>
      <point x="1786.0" y="1400.0" type="curve" smooth="yes"/>
      <point x="1190.0" y="1400.0" type="line" smooth="yes"/>
      <point x="1130.0" y="1400.0"/>
      <point x="1092.0" y="1348.0"/>
      <point x="1092.0" y="1286.0" type="curve" smooth="yes"/>
      <point x="1092.0" y="1234.0"/>
      <point x="1122.0" y="1204.0"/>
      <point x="1176.0" y="1192.0" type="curve" smooth="yes"/>
      <point x="1194.0" y="1188.0" type="line" smooth="yes"/>
      <point x="1230.0" y="1182.0"/>
      <point x="1242.0" y="1158.0"/>
      <point x="1238.0" y="1124.0" type="curve" smooth="yes"/>
      <point x="1232.0" y="1074.0"/>
      <point x="1114.0" y="588.0"/>
      <point x="1030.0" y="306.0" type="curve" smooth="yes"/>
      <point x="1014.0" y="252.0"/>
      <point x="990.0" y="230.0"/>
      <point x="948.0" y="220.0" type="curve" smooth="yes"/>
      <point x="916.0" y="212.0" type="line" smooth="yes"/>
      <point x="866.0" y="200.0"/>
      <point x="832.0" y="156.0"/>
      <point x="832.0" y="98.0" type="curve" smooth="yes"/>
      <point x="832.0" y="42.0"/>
      <point x="868.0" y="0.0"/>
      <point x="930.0" y="0.0" type="curve" smooth="yes"/>
      <point x="1514.0" y="0.0" type="line" smooth="yes"/>
      <point x="1600.0" y="0.0"/>
      <point x="1644.0" y="44.0"/>
      <point x="1644.0" y="112.0" type="curve" smooth="yes"/>
      <point x="1644.0" y="162.0"/>
      <point x="1614.0" y="196.0"/>
      <point x="1574.0" y="212.0" type="curve" smooth="yes"/>
      <point x="1530.0" y="230.0" type="line" smooth="yes"/>
      <point x="1506.0" y="240.0"/>
      <point x="1486.0" y="256.0"/>
    </contour>
  </outline>
</glyph>
<glyph name="J" format="2">
  <advance width="858"/>
  <unicode hex="004A"/>
  <outline>
    <contour>
      <point x="930.0" y="990.0" type="curve" smooth="yes"/>
      <point x="976.0" y="1136.0"/>
      <point x="1012.0" y="1140.0"/>
      <point x="1052.0" y="1158.0" type="curve" smooth="yes"/>
      <point x="1076.0" y="1172.0" type="line" smooth="yes"/>
      <point x="1150.0" y="1200.0"/>
      <point x="1220.0" y="1262.0"/>
      <point x="1212.0" y="1312.0" type="curve" smooth="yes"/>
      <point x="1206.0" y="1372.0"/>
      <point x="1192.0" y="1400.0"/>
      <point x="1112.0" y="1400.0" type="curve" smooth="yes"/>
      <point x="440.0" y="1400.0" type="line" smooth="yes"/>
      <point x="376.0" y="1400.0"/>
      <point x="328.0" y="1364.0"/>
      <point x="334.0" y="1304.0" type="curve" smooth="yes"/>
      <point x="342.0" y="1246.0"/>
      <point x="380.0" y="1218.0"/>
      <point x="412.0" y="1200.0" type="curve" smooth="yes"/>
      <point x="426.0" y="1192.0" type="line" smooth="yes"/>
      <point x="466.0" y="1174.0"/>
      <point x="518.0" y="1108.0"/>
      <point x="496.0" y="990.0" type="curve" smooth="yes"/>
      <point x="470.0" y="848.0"/>
      <point x="268.0" y="408.0"/>
      <point x="348.0" y="362.0" type="curve" smooth="yes"/>
      <point x="382.0" y="254.0"/>
      <point x="482.0" y="200.0"/>
      <point x="482.0" y="78.0" type="curve" smooth="yes"/>
      <point x="482.0" y="-12.0"/>
      <point x="432.0" y="-56.0"/>
      <point x="364.0" y="-56.0" type="curve" smooth="yes"/>
      <point x="254.0" y="-56.0"/>
      <point x="156.0" y="34.0"/>
      <point x="36.0" y="34.0" type="curve" smooth="yes"/>
      <point x="-90.0" y="34.0"/>
      <point x="-164.0" y="-64.0"/>
      <point x="-164.0" y="-178.0" type="curve"/>
      <point x="-164.0" y="-306.0"/>
      <point x="-78.0" y="-392.0"/>
      <point x="80.0" y="-392.0" type="curve" smooth="yes"/>
      <point x="368.0" y="-392.0"/>
      <point x="652.0" y="-220.0"/>
      <point x="738.0" y="234.0" type="curve" smooth="yes"/>
      <point x="756.0" y="320.0"/>
      <point x="872.0" y="808.0"/>
    </contour>
  </outline>
</glyph>
<glyph name="O" format="2">
  <advance width="1592"/>
  <unicode hex="004F"/>
  <anchor x="994.0" y="1546.0" name="center"/>
  <outline>
    <contour>
      <point x="1072.0" y="1432.0" type="curve" smooth="yes"/>
      <point x="582.0" y="1432.0"/>
      <point x="206.0" y="1116.0"/>
      <point x="104.0" y="652.0" type="curve" smooth="yes"/>
      <point x="8.0" y="212.0"/>
      <point x="200.0" y="-30.0"/>
      <point x="618.0" y="-30.0" type="curve" smooth="yes"/>
      <point x="1052.0" y="-30.0"/>
      <point x="1484.0" y="238.0"/>
      <point x="1612.0" y="776.0" type="curve" smooth="yes"/>
      <point x="1706.0" y="1178.0"/>
      <point x="1464.0" y="1432.0"/>
    </contour>
    <contour>
      <point x="708.0" y="188.0" type="curve" smooth="yes"/>
      <point x="630.0" y="188.0"/>
      <point x="582.0" y="292.0"/>
      <point x="686.0" y="716.0" type="curve" smooth="yes"/>
      <point x="772.0" y="1070.0"/>
      <point x="890.0" y="1214.0"/>
      <point x="1006.0" y="1214.0" type="curve" smooth="yes"/>
      <point x="1096.0" y="1214.0"/>
      <point x="1124.0" y="1086.0"/>
      <point x="1032.0" y="720.0" type="curve" smooth="yes"/>
      <point x="922.0" y="280.0"/>
      <point x="820.0" y="188.0"/>
    </contour>
  </outline>
</glyph>
<glyph name="T" format="2">
  <advance width="1370"/>
  <unicode hex="0054"/>
  <outline>
    <contour>
      <point x="608.0" y="1434.0" type="curve" smooth="yes"/>
      <point x="331.7837837837838" y="1434.0"/>
      <point x="170.0" y="1286.0"/>
      <point x="170.0" y="1088.0" type="curve" smooth="yes"/>
      <point x="170.0" y="952.0"/>
      <point x="249.30434782608694" y="876.0"/>
      <point x="362.0" y="876.0" type="curve" smooth="yes"/>
      <point x="477.2" y="876.0"/>
      <point x="554.0" y="954.0"/>
      <point x="554.0" y="1032.0" type="curve" smooth="yes"/>
      <point x="554.0" y="1082.0"/>
      <point x="538.0" y="1108.0"/>
      <point x="538.0" y="1146.0" type="curve" smooth="yes"/>
      <point x="538.0" y="1196.0"/>
      <point x="570.0" y="1226.0"/>
      <point x="630.0" y="1226.0" type="curve" smooth="yes"/>
      <point x="786.0" y="1226.0"/>
      <point x="1168.0" y="1068.0"/>
      <point x="1336.0" y="1068.0" type="curve" smooth="yes"/>
      <point x="1522.0" y="1068.0"/>
      <point x="1624.0" y="1182.0"/>
      <point x="1624.0" y="1324.0" type="curve" smooth="yes"/>
      <point x="1624.0" y="1429.7777777777776"/>
      <point x="1560.0" y="1478.0"/>
      <point x="1480.0" y="1478.0" type="curve" smooth="yes"/>
      <point x="1394.0" y="1478.0"/>
      <point x="1356.0" y="1454.0"/>
      <point x="1308.0" y="1402.0" type="curve" smooth="yes"/>
      <point x="1276.0" y="1366.0"/>
      <point x="1243.9607843137255" y="1340.0"/>
      <point x="1166.0" y="1340.0" type="curve" smooth="yes"/>
      <point x="1032.0" y="1340.0"/>
      <point x="836.0" y="1434.0"/>
    </contour>
    <contour>
      <point x="950.0" y="400.0" type="curve" smooth="yes"/>
      <point x="1002.0" y="610.0"/>
      <point x="1100.0" y="980.0"/>
      <point x="1176.0" y="1240.0" type="curve"/>
      <point x="766.0" y="1316.0" type="line"/>
      <point x="692.0" y="1022.0"/>
      <point x="568.0" y="654.0"/>
      <point x="470.0" y="352.0" type="curve" smooth="yes"/>
      <point x="444.94194333267694" y="274.8982871774675"/>
      <point x="423.85281655910035" y="256.89252893873925"/>
      <point x="362.0" y="230.0" type="curve" smooth="yes"/>
      <point x="316.0" y="210.0" type="line" smooth="yes"/>
      <point x="264.0" y="188.0"/>
      <point x="236.0" y="154.0"/>
      <point x="232.0" y="98.0" type="curve" smooth="yes"/>
      <point x="228.0" y="34.0"/>
      <point x="250.0" y="0.0"/>
      <point x="320.0" y="0.0" type="curve" smooth="yes"/>
      <point x="978.0" y="0.0" type="line" smooth="yes"/>
      <point x="1046.0" y="0.0"/>
      <point x="1092.0" y="28.799999999999997"/>
      <point x="1092.0" y="90.0" type="curve" smooth="yes"/>
      <point x="1092.0" y="159.6140350877193"/>
      <point x="1064.8047374273717" y="177.517157543577"/>
      <point x="1004.0" y="214.0" type="curve" smooth="yes"/>
      <point x="974.0" y="232.0" type="line" smooth="yes"/>
      <point x="938.0" y="254.0"/>
      <point x="924.8409371892561" y="301.29906128092773"/>
    </contour>
  </outline>
</glyph>
<glyph name="U" format="2">
  <advance width="1492"/>
  <unicode hex="0055"/>
  <anchor x="1104.0" y="1476.0" name="center"/>
  <outline>
    <contour>
      <point x="1108.0" y="480.0" type="line" smooth="yes"/>
      <point x="1048.0" y="268.0"/>
      <point x="952.0" y="206.0"/>
      <point x="830.0" y="206.0" type="curve" smooth="yes"/>
      <point x="720.0" y="206.0"/>
      <point x="654.0" y="268.0"/>
      <point x="654.0" y="390.0" type="curve" smooth="yes"/>
      <point x="654.0" y="450.0"/>
      <point x="668.0" y="518.0"/>
      <point x="702.0" y="646.0" type="curve" smooth="yes"/>
      <point x="798.0" y="1006.0" type="line" smooth="yes"/>
      <point x="824.0" y="1108.0"/>
      <point x="864.0" y="1166.0"/>
      <point x="932.0" y="1196.0" type="curve" smooth="yes"/>
      <point x="950.0" y="1204.0" type="line" smooth="yes"/>
      <point x="1002.0" y="1226.0"/>
      <point x="1034.0" y="1270.0"/>
      <point x="1034.0" y="1312.0" type="curve" smooth="yes"/>
      <point x="1034.0" y="1370.0"/>
      <point x="1000.0" y="1400.0"/>
      <point x="932.0" y="1400.0" type="curve" smooth="yes"/>
      <point x="296.0" y="1400.0" type="line" smooth="yes"/>
      <point x="242.0" y="1400.0"/>
      <point x="208.0" y="1356.0"/>
      <point x="208.0" y="1306.0" type="curve" smooth="yes"/>
      <point x="208.0" y="1256.0"/>
      <point x="220.0" y="1232.0"/>
      <point x="268.0" y="1198.0" type="curve" smooth="yes"/>
      <point x="282.0" y="1186.0" type="line" smooth="yes"/>
      <point x="318.0" y="1156.0"/>
      <point x="334.0" y="1090.0"/>
      <point x="314.0" y="1012.0" type="curve" smooth="yes"/>
      <point x="218.0" y="646.0" type="line" smooth="yes"/>
      <point x="192.0" y="550.0"/>
      <point x="150.0" y="406.0"/>
      <point x="150.0" y="332.0" type="curve" smooth="yes"/>
      <point x="150.0" y="122.0"/>
      <point x="318.0" y="-30.0"/>
      <point x="670.0" y="-30.0" type="curve" smooth="yes"/>
      <point x="1012.0" y="-30.0"/>
      <point x="1234.0" y="112.0"/>
      <point x="1328.0" y="462.0" type="curve" smooth="yes"/>
      <point x="1452.0" y="922.0" type="line" smooth="yes"/>
      <point x="1496.0" y="1080.0"/>
      <point x="1526.0" y="1110.0"/>
      <point x="1602.0" y="1152.0" type="curve" smooth="yes"/>
      <point x="1620.0" y="1162.0" type="line" smooth="yes"/>
      <point x="1676.0" y="1194.0"/>
      <point x="1712.0" y="1226.0"/>
      <point x="1712.0" y="1306.0" type="curve" smooth="yes"/>
      <point x="1712.0" y="1360.0"/>
      <point x="1674.0" y="1400.0"/>
      <point x="1614.0" y="1400.0" type="curve" smooth="yes"/>
      <point x="1218.0" y="1400.0" type="line" smooth="yes"/>
      <point x="1142.0" y="1400.0"/>
      <point x="1106.0" y="1362.0"/>
      <point x="1106.0" y="1306.0" type="curve" smooth="yes"/>
      <point x="1106.0" y="1254.0"/>
      <point x="1124.0" y="1216.0"/>
      <point x="1190.0" y="1180.0" type="curve" smooth="yes"/>
      <point x="1208.0" y="1170.0" type="line" smooth="yes"/>
      <point x="1254.0" y="1144.0"/>
      <point x="1268.0" y="1054.0"/>
      <point x="1236.0" y="940.0" type="curve" smooth="yes"/>
    </contour>
  </outline>
</glyph>
<glyph name="a" format="2">
  <advance width="1246"/>
  <unicode hex="0061"/>
  <anchor x="720.0" y="1008.0" name="center"/>
  <outline>
    <contour>
      <point x="1024.0" y="352.0" type="curve" smooth="yes"/>
      <point x="1024.0" y="404.0"/>
      <point x="1062.0" y="532.0"/>
      <point x="1092.0" y="618.0" type="curve" smooth="yes"/>
      <point x="1116.0" y="694.0"/>
      <point x="1202.0" y="700.0"/>
      <point x="1202.0" y="792.0" type="curve" smooth="yes"/>
      <point x="1202.0" y="906.0"/>
      <point x="1116.0" y="968.0"/>
      <point x="850.0" y="968.0" type="curve" smooth="yes"/>
      <point x="336.0" y="968.0"/>
      <point x="26.0" y="642.0"/>
      <point x="26.0" y="282.0" type="curve" smooth="yes"/>
      <point x="26.0" y="64.0"/>
      <point x="134.0" y="-28.0"/>
      <point x="282.0" y="-28.0" type="curve" smooth="yes"/>
      <point x="484.0" y="-28.0"/>
      <point x="606.0" y="66.0"/>
      <point x="720.0" y="268.0" type="curve"/>
      <point x="686.0" y="388.0" type="line"/>
      <point x="668.0" y="306.0"/>
      <point x="642.0" y="240.0"/>
      <point x="642.0" y="160.0" type="curve" smooth="yes"/>
      <point x="642.0" y="44.0"/>
      <point x="708.0" y="-28.0"/>
      <point x="806.0" y="-28.0" type="curve" smooth="yes"/>
      <point x="986.1041666666667" y="-28.0"/>
      <point x="1120.2258983292868" y="60.335249091046876"/>
      <point x="1170.0" y="202.0" type="curve" smooth="yes"/>
      <point x="1196.0" y="278.0"/>
      <point x="1188.0" y="318.0"/>
      <point x="1162.0" y="332.0" type="curve" smooth="yes"/>
      <point x="1147.4080286322367" y="340.51198329786195"/>
      <point x="1125" y="341"/>
      <point x="1109.0" y="332.0" type="curve" smooth="yes"/>
      <point x="1089" y="321"/>
      <point x="1079.7586206896553" y="312.0"/>
      <point x="1056.0" y="312.0" type="curve" smooth="yes"/>
      <point x="1032.0" y="312.0"/>
      <point x="1024.0" y="328.0"/>
    </contour>
    <contour>
      <point x="446.0" y="328.0" type="curve" smooth="yes"/>
      <point x="446.0" y="500.0"/>
      <point x="578.0" y="730.0"/>
      <point x="668.0" y="730.0" type="curve" smooth="yes"/>
      <point x="700.0" y="730.0"/>
      <point x="718.0" y="716.0"/>
      <point x="718.0" y="652.0" type="curve" smooth="yes"/>
      <point x="718.0" y="484.0"/>
      <point x="582.0" y="244.0"/>
      <point x="498.0" y="244.0" type="curve" smooth="yes"/>
      <point x="464.0" y="244.0"/>
      <point x="446.0" y="280.0"/>
    </contour>
  </outline>
</glyph>
<glyph name="b" format="2">
  <advance width="1224"/>
  <unicode hex="0062"/>
  <outline>
    <contour>
      <point x="688.0" y="1044.0" type="line" smooth="yes"/>
      <point x="730.0" y="1202.0"/>
      <point x="790.0" y="1242.0"/>
      <point x="846.0" y="1242.0" type="curve" smooth="yes"/>
      <point x="940.0" y="1242.0"/>
      <point x="1068.0" y="1034.0"/>
      <point x="1190.0" y="1034.0" type="curve" smooth="yes"/>
      <point x="1300.0" y="1034.0"/>
      <point x="1384.0" y="1116.0"/>
      <point x="1384.0" y="1218.0" type="curve" smooth="yes"/>
      <point x="1384.0" y="1354.0"/>
      <point x="1286.0" y="1452.0"/>
      <point x="1076.0" y="1452.0" type="curve" smooth="yes"/>
      <point x="628.0" y="1452.0"/>
      <point x="350.0" y="1270.0"/>
      <point x="230.0" y="874.0" type="curve" smooth="yes"/>
      <point x="76.0" y="366.0" type="line" smooth="yes"/>
      <point x="36.0" y="234.0"/>
      <point x="14.0" y="186.0"/>
      <point x="14.0" y="134.0" type="curve" smooth="yes"/>
      <point x="14.0" y="38.0"/>
      <point x="64.0" y="-24.0"/>
      <point x="124.0" y="-24.0" type="curve" smooth="yes"/>
      <point x="186.0" y="-24.0"/>
      <point x="218.0" y="-2.0"/>
      <point x="282.0" y="62.0" type="curve" smooth="yes"/>
      <point x="412.0" y="190.0" type="line"/>
      <point x="278.0" y="266.0" type="line"/>
      <point x="278.0" y="56.0"/>
      <point x="414.0" y="-26.0"/>
      <point x="594.0" y="-26.0" type="curve" smooth="yes"/>
      <point x="906.0" y="-26.0"/>
      <point x="1204.0" y="254.0"/>
      <point x="1204.0" y="654.0" type="curve" smooth="yes"/>
      <point x="1204.0" y="880.0"/>
      <point x="1098.0" y="968.0"/>
      <point x="938.0" y="968.0" type="curve" smooth="yes"/>
      <point x="766.0" y="968.0"/>
      <point x="636.0" y="866.0"/>
      <point x="562.0" y="704.0" type="curve"/>
      <point x="598.0" y="692.0" type="line"/>
    </contour>
    <contour>
      <point x="706.0" y="712.0" type="curve" smooth="yes"/>
      <point x="732.0" y="712.0"/>
      <point x="762.0" y="696.0"/>
      <point x="762.0" y="628.0" type="curve" smooth="yes"/>
      <point x="762.0" y="374.0"/>
      <point x="628.0" y="194.0"/>
      <point x="544.0" y="194.0" type="curve" smooth="yes"/>
      <point x="512.0" y="194.0"/>
      <point x="496.0" y="224.0"/>
      <point x="496.0" y="264.0" type="curve" smooth="yes"/>
      <point x="496.0" y="482.0"/>
      <point x="620.0" y="712.0"/>
    </contour>
  </outline>
</glyph>
<glyph name="e" format="2">
  <advance width="1128"/>
  <unicode hex="0065"/>
  <anchor x="572.0" y="1024.0" name="center"/>
  <outline>
    <contour>
      <point x="244.0" y="448.0" type="curve"/>
      <point x="254.0" y="298.0" type="line"/>
      <point x="254.0" y="298.0"/>
      <point x="756.0" y="416.0"/>
      <point x="974.0" y="480.0" type="curve" smooth="yes"/>
      <point x="1064.0" y="510.0"/>
      <point x="1094.0" y="550.0"/>
      <point x="1094.0" y="600.0" type="curve" smooth="yes"/>
      <point x="1094.0" y="634.0"/>
      <point x="1078.0" y="652.0"/>
      <point x="1056.0" y="662.0" type="curve" smooth="yes"/>
      <point x="1042.0" y="670.0"/>
      <point x="1032.0" y="698.0"/>
      <point x="1024.0" y="728.0" type="curve" smooth="yes"/>
      <point x="988.0" y="872.0"/>
      <point x="912.0" y="968.0"/>
      <point x="728.0" y="968.0" type="curve" smooth="yes"/>
      <point x="360.0" y="968.0"/>
      <point x="48.0" y="670.0"/>
      <point x="48.0" y="338.0" type="curve" smooth="yes"/>
      <point x="48.0" y="124.0"/>
      <point x="190.0" y="-26.0"/>
      <point x="444.0" y="-26.0" type="curve" smooth="yes"/>
      <point x="830.0" y="-26.0"/>
      <point x="1046.0" y="152.0"/>
      <point x="1046.0" y="326.0" type="curve" smooth="yes"/>
      <point x="1046.0" y="368.0"/>
      <point x="1026.0" y="410.0"/>
      <point x="978.0" y="410.0" type="curve" smooth="yes"/>
      <point x="930.0" y="410.0"/>
      <point x="902.0" y="390.0"/>
      <point x="852.0" y="332.0" type="curve" smooth="yes"/>
      <point x="802.0" y="274.0"/>
      <point x="722.0" y="240.0"/>
      <point x="632.0" y="240.0" type="curve" smooth="yes"/>
      <point x="518.0" y="240.0"/>
      <point x="468.0" y="316.0"/>
      <point x="468.0" y="454.0" type="curve" smooth="yes"/>
      <point x="468.0" y="598.0"/>
      <point x="556.0" y="750.0"/>
      <point x="618.0" y="750.0" type="curve" smooth="yes"/>
      <point x="650.0" y="750.0"/>
      <point x="666.0" y="728.0"/>
      <point x="666.0" y="692.0" type="curve" smooth="yes"/>
      <point x="666.0" y="614.0"/>
      <point x="644.0" y="546.0"/>
      <point x="622.0" y="496.0" type="curve"/>
      <point x="666.0" y="556.0" type="line"/>
      <point x="536.0" y="510.0"/>
      <point x="244.0" y="448.0"/>
    </contour>
  </outline>
</glyph>
<glyph name="f" format="2">
  <advance width="784"/>
  <unicode hex="0066"/>
  <outline>
    <contour>
      <point x="434.0" y="632.0" type="line"/>
      <point x="648.0" y="632.0" type="line" smooth="yes"/>
      <point x="758.0" y="632.0"/>
      <point x="836.0" y="706.0"/>
      <point x="836.0" y="806.0" type="curve" smooth="yes"/>
      <point x="836.0" y="856.0"/>
      <point x="794.0" y="880.0"/>
      <point x="722.0" y="880.0" type="curve" smooth="yes"/>
      <point x="526.0" y="880.0" type="line"/>
    </contour>
    <contour>
      <point x="84.0" y="778.0" type="curve" smooth="yes"/>
      <point x="84.0" y="742.0"/>
      <point x="108.0" y="706.0"/>
      <point x="146.0" y="676.0" type="curve" smooth="yes"/>
      <point x="194.0" y="638.0"/>
      <point x="210.0" y="584.0"/>
      <point x="184.0" y="490.0" type="curve" smooth="yes"/>
      <point x="30.0" y="-64.0" type="line" smooth="yes"/>
      <point x="8.0" y="-146.0"/>
      <point x="-12.0" y="-208.0"/>
      <point x="-12.0" y="-278.0" type="curve" smooth="yes"/>
      <point x="-12.0" y="-372.0"/>
      <point x="46.0" y="-424.0"/>
      <point x="142.0" y="-424.0" type="curve" smooth="yes"/>
      <point x="342.0" y="-424.0"/>
      <point x="552.0" y="-324.0"/>
      <point x="552.0" y="-192.0" type="curve" smooth="yes"/>
      <point x="552.0" y="-104.0"/>
      <point x="454.0" y="-88.0"/>
      <point x="454.0" y="-10.0" type="curve" smooth="yes"/>
      <point x="454.0" y="12.0"/>
      <point x="458.0" y="44.0"/>
      <point x="466.0" y="86.0" type="curve" smooth="yes"/>
      <point x="618.0" y="720.0" type="line" smooth="yes"/>
      <point x="662.0" y="908.0"/>
      <point x="524.0" y="1018.0"/>
      <point x="524.0" y="1110.0" type="curve" smooth="yes"/>
      <point x="524.0" y="1164.0"/>
      <point x="550.0" y="1198.0"/>
      <point x="590.0" y="1198.0" type="curve" smooth="yes"/>
      <point x="690.0" y="1198.0"/>
      <point x="742.0" y="1034.0"/>
      <point x="866.0" y="1034.0" type="curve" smooth="yes"/>
      <point x="968.0" y="1034.0"/>
      <point x="1040.0" y="1102.0"/>
      <point x="1040.0" y="1212.0" type="curve" smooth="yes"/>
      <point x="1040.0" y="1320.0"/>
      <point x="960.0" y="1412.0"/>
      <point x="812.0" y="1412.0" type="curve" smooth="yes"/>
      <point x="496.0" y="1412.0"/>
      <point x="308.0" y="1238.0"/>
      <point x="286.0" y="956.0" type="curve" smooth="yes"/>
      <point x="280.0" y="880.0" type="line"/>
      <point x="212.0" y="880.0" type="line" smooth="yes"/>
      <point x="134.0" y="880.0"/>
      <point x="84.0" y="838.0"/>
    </contour>
  </outline>
</glyph>
<glyph name="g" format="2">
  <advance width="1172"/>
  <unicode hex="0067"/>
  <outline>
    <contour>
      <point x="1000.0" y="-8.0" type="curve" smooth="yes"/>
      <point x="1028.0" y="128.0"/>
      <point x="1028.0" y="256.0"/>
      <point x="1042.0" y="408.0" type="curve" smooth="yes"/>
      <point x="1056.0" y="570.0"/>
      <point x="1166.0" y="622.0"/>
      <point x="1166.0" y="770.0" type="curve" smooth="yes"/>
      <point x="1166.0" y="886.0"/>
      <point x="1060.0" y="958.0"/>
      <point x="870.0" y="958.0" type="curve" smooth="yes"/>
      <point x="356.0" y="958.0"/>
      <point x="38.0" y="628.0"/>
      <point x="38.0" y="256.0" type="curve" smooth="yes"/>
      <point x="38.0" y="70.0"/>
      <point x="142.0" y="-26.0"/>
      <point x="302.0" y="-26.0" type="curve" smooth="yes"/>
      <point x="440.0" y="-26.0"/>
      <point x="668.0" y="40.0"/>
      <point x="732.0" y="248.0" type="curve"/>
      <point x="696.0" y="332.0" type="line"/>
      <point x="696.0" y="294.0"/>
      <point x="684.0" y="234.0"/>
      <point x="578.0" y="-152.0" type="curve" smooth="yes"/>
      <point x="558.0" y="-224.0"/>
      <point x="518.0" y="-256.0"/>
      <point x="468.0" y="-256.0" type="curve" smooth="yes"/>
      <point x="324.0" y="-256.0"/>
      <point x="250.0" y="-72.0"/>
      <point x="90.0" y="-72.0" type="curve" smooth="yes"/>
      <point x="-24.0" y="-72.0"/>
      <point x="-82.0" y="-164.0"/>
      <point x="-82.0" y="-264.0" type="curve" smooth="yes"/>
      <point x="-82.0" y="-378.0"/>
      <point x="28.0" y="-488.0"/>
      <point x="264.0" y="-488.0" type="curve" smooth="yes"/>
      <point x="642.0" y="-488.0"/>
      <point x="938.0" y="-310.0"/>
    </contour>
    <contour>
      <point x="458.0" y="314.0" type="curve" smooth="yes"/>
      <point x="458.0" y="500.0"/>
      <point x="584.0" y="724.0"/>
      <point x="674.0" y="724.0" type="curve" smooth="yes"/>
      <point x="710.0" y="724.0"/>
      <point x="728.0" y="698.0"/>
      <point x="728.0" y="656.0" type="curve" smooth="yes"/>
      <point x="728.0" y="518.0"/>
      <point x="608.0" y="244.0"/>
      <point x="512.0" y="244.0" type="curve" smooth="yes"/>
      <point x="474.0" y="244.0"/>
      <point x="458.0" y="268.0"/>
    </contour>
  </outline>
</glyph>
<glyph name="h" format="2">
  <advance width="1256"/>
  <unicode hex="0068"/>
  <outline>
    <contour>
      <point x="474.0" y="360.0" type="curve" smooth="yes"/>
      <point x="468.0" y="338.0"/>
      <point x="462.0" y="304.0"/>
      <point x="462.0" y="280.0" type="curve" smooth="yes"/>
      <point x="462.0" y="224.0"/>
      <point x="484.0" y="194.0"/>
      <point x="484.0" y="146.0" type="curve" smooth="yes"/>
      <point x="484.0" y="44.0"/>
      <point x="334.0" y="-24.0"/>
      <point x="176.0" y="-24.0" type="curve" smooth="yes"/>
      <point x="62.0" y="-24.0"/>
      <point x="8.0" y="20.0"/>
      <point x="8.0" y="116.0" type="curve" smooth="yes"/>
      <point x="8.0" y="148.0"/>
      <point x="8.0" y="192.0"/>
      <point x="36.0" y="278.0" type="curve" smooth="yes"/>
      <point x="264.0" y="966.0" type="line" smooth="yes"/>
      <point x="356.0" y="1246.0"/>
      <point x="620.0" y="1450.0"/>
      <point x="1082.0" y="1450.0" type="curve" smooth="yes"/>
      <point x="1276.0" y="1450.0"/>
      <point x="1376.0" y="1354.0"/>
      <point x="1376.0" y="1208.0" type="curve" smooth="yes"/>
      <point x="1376.0" y="1114.0"/>
      <point x="1298.0" y="1038.0"/>
      <point x="1188.0" y="1038.0" type="curve" smooth="yes"/>
      <point x="1018.0" y="1038.0"/>
      <point x="956" y="1246"/>
      <point x="834.0" y="1246.0" type="curve" smooth="yes"/>
      <point x="777" y="1246.0"/>
      <point x="720" y="1197"/>
      <point x="694.0" y="1100.0" type="curve" smooth="yes"/>
      <point x="634" y="879"/>
      <point x="604.0" y="768.0"/>
      <point x="588.0" y="698.0" type="curve"/>
      <point x="556.0" y="704.0" type="line"/>
      <point x="680.0" y="896.0"/>
      <point x="868.0" y="962.0"/>
      <point x="1012.0" y="962.0" type="curve" smooth="yes"/>
      <point x="1116.0" y="962.0"/>
      <point x="1178.0" y="894.0"/>
      <point x="1178.0" y="810.0" type="curve" smooth="yes"/>
      <point x="1178.0" y="744.0"/>
      <point x="1168.0" y="682.0"/>
      <point x="1136.0" y="608.0" type="curve" smooth="yes"/>
      <point x="1054.0" y="418.0" type="line" smooth="yes"/>
      <point x="1040.9498158227434" y="387.76176836977146"/>
      <point x="1033" y="364"/>
      <point x="1033.0" y="347.0" type="curve" smooth="yes"/>
      <point x="1033.0" y="327.0"/>
      <point x="1043.0" y="314.0"/>
      <point x="1064.0" y="314.0" type="curve" smooth="yes"/>
      <point x="1080" y="314"/>
      <point x="1092.0594978440581" y="318.60183165648954"/>
      <point x="1108.0" y="331.0" type="curve" smooth="yes"/>
      <point x="1123" y="344"/>
      <point x="1136.0" y="348.0"/>
      <point x="1150.0" y="348.0" type="curve" smooth="yes"/>
      <point x="1190.0" y="348.0"/>
      <point x="1208.0" y="316.0"/>
      <point x="1206.0" y="286.0" type="curve" smooth="yes"/>
      <point x="1204.0625053778376" y="127.12544098268714"/>
      <point x="1052.019801980198" y="-24.0"/>
      <point x="822.0" y="-24.0" type="curve" smooth="yes"/>
      <point x="682.0" y="-24.0"/>
      <point x="600.0" y="32.0"/>
      <point x="604.0" y="174.0" type="curve" smooth="yes"/>
      <point x="608.0" y="222.0"/>
      <point x="624.0" y="272.0"/>
      <point x="642.0" y="324.0" type="curve" smooth="yes"/>
      <point x="694.0" y="472.0" type="line" smooth="yes"/>
      <point x="706.0" y="506.0"/>
      <point x="716.0" y="550.0"/>
      <point x="716.0" y="570.0" type="curve" smooth="yes"/>
      <point x="716.0" y="596.0"/>
      <point x="700.0" y="614.0"/>
      <point x="684.0" y="614.0" type="curve" smooth="yes"/>
      <point x="588.0" y="614.0"/>
      <point x="518.0" y="514.0"/>
    </contour>
  </outline>
</glyph>
<glyph name="l" format="2">
  <advance width="654"/>
  <unicode hex="006C"/>
  <outline>
    <contour>
      <point x="890.0" y="1470.0" type="curve" smooth="yes"/>
      <point x="674.0" y="1470.0"/>
      <point x="530.0" y="1350.0"/>
      <point x="466.0" y="1170.0" type="curve" smooth="yes"/>
      <point x="210.0" y="404.0" type="line" smooth="yes"/>
      <point x="184.0" y="332.0"/>
      <point x="178.0" y="288.0"/>
      <point x="178.0" y="224.0" type="curve" smooth="yes"/>
      <point x="178.0" y="72.0"/>
      <point x="262.0" y="-30.0"/>
      <point x="426.0" y="-30.0" type="curve" smooth="yes"/>
      <point x="608.0" y="-30.0"/>
      <point x="734.0" y="114.0"/>
      <point x="734.0" y="224.0" type="curve" smooth="yes"/>
      <point x="734.0" y="274.0"/>
      <point x="714.0" y="324.0"/>
      <point x="674.0" y="324.0" type="curve" smooth="yes"/>
      <point x="658.0" y="324.0"/>
      <point x="642.0" y="328.0"/>
      <point x="638.0" y="318.0" type="curve" smooth="yes"/>
      <point x="634.0" y="312.0"/>
      <point x="636.0" y="324.0"/>
      <point x="634.0" y="324.0" type="curve" smooth="yes"/>
      <point x="612.0" y="324.0"/>
      <point x="600.0" y="360.0"/>
      <point x="600.0" y="430.0" type="curve" smooth="yes"/>
      <point x="600.0" y="452.0"/>
      <point x="620.0" y="524.0"/>
      <point x="648.0" y="620.0" type="curve" smooth="yes"/>
      <point x="692.0" y="740.0" type="line" smooth="yes"/>
      <point x="742.0" y="892.0"/>
      <point x="580.0" y="974.0"/>
      <point x="580.0" y="1068.0" type="curve" smooth="yes"/>
      <point x="580.0" y="1128.0"/>
      <point x="602.0" y="1154.0"/>
      <point x="676.0" y="1154.0" type="curve" smooth="yes"/>
      <point x="726.0" y="1154.0"/>
      <point x="760.0" y="1090.0"/>
      <point x="858.0" y="1090.0" type="curve" smooth="yes"/>
      <point x="1008.0" y="1090.0"/>
      <point x="1074.0" y="1182.0"/>
      <point x="1074.0" y="1284.0" type="curve" smooth="yes"/>
      <point x="1074.0" y="1382.0"/>
      <point x="1018.0" y="1470.0"/>
    </contour>
  </outline>
</glyph>
<glyph name="o" format="2">
  <advance width="1190"/>
  <unicode hex="006F"/>
  <outline>
    <contour>
      <point x="728.0" y="968.0" type="curve" smooth="yes"/>
      <point x="312.0" y="968.0"/>
      <point x="40.0" y="642.0"/>
      <point x="40.0" y="386.0" type="curve" smooth="yes"/>
      <point x="40.0" y="140.0"/>
      <point x="186.0" y="-26.0"/>
      <point x="454.0" y="-26.0" type="curve" smooth="yes"/>
      <point x="822.0" y="-26.0"/>
      <point x="1150.0" y="256.0"/>
      <point x="1150.0" y="606.0" type="curve" smooth="yes"/>
      <point x="1150.0" y="820.0"/>
      <point x="1034.0" y="968.0"/>
    </contour>
    <contour>
      <point x="510.0" y="176.0" type="curve" smooth="yes"/>
      <point x="480.0" y="176.0"/>
      <point x="460.0" y="200.0"/>
      <point x="460.0" y="256.0" type="curve" smooth="yes"/>
      <point x="460.0" y="516.0"/>
      <point x="592.0" y="764.0"/>
      <point x="668.0" y="764.0" type="curve" smooth="yes"/>
      <point x="706.0" y="764.0"/>
      <point x="718.0" y="740.0"/>
      <point x="718.0" y="690.0" type="curve" smooth="yes"/>
      <point x="718.0" y="402.0"/>
      <point x="584.0" y="176.0"/>
    </contour>
  </outline>
</glyph>
<glyph name="q" format="2">
  <advance width="1076"/>
  <unicode hex="0071"/>
  <outline>
    <contour>
      <point x="506.0" y="432.0" type="curve" smooth="yes"/>
      <point x="506.0" y="608.0"/>
      <point x="632.0" y="728.0"/>
      <point x="748.0" y="728.0" type="curve" smooth="yes"/>
      <point x="810.0" y="728.0"/>
      <point x="842.0" y="670.0"/>
      <point x="842.0" y="620.0" type="curve" smooth="yes"/>
      <point x="842.0" y="456.0"/>
      <point x="722.0" y="292.0"/>
      <point x="614.0" y="292.0" type="curve" smooth="yes"/>
      <point x="548.0" y="292.0"/>
      <point x="506.0" y="336.0"/>
    </contour>
    <contour>
      <point x="776.0" y="270.0" type="line"/>
      <point x="632.0" y="-158.0" type="line" smooth="yes"/>
      <point x="614.0" y="-210.0"/>
      <point x="590.0" y="-250.0"/>
      <point x="530.0" y="-272.0" type="curve" smooth="yes"/>
      <point x="470.0" y="-292.0"/>
      <point x="450.0" y="-344.0"/>
      <point x="450.0" y="-380.0" type="curve" smooth="yes"/>
      <point x="450.0" y="-434.0"/>
      <point x="472.0" y="-458.0"/>
      <point x="520.0" y="-460.0" type="curve" smooth="yes"/>
      <point x="976.0" y="-450.0" type="line" smooth="yes"/>
      <point x="1012.0" y="-452.0"/>
      <point x="1036.0" y="-430.0"/>
      <point x="1036.0" y="-378.0" type="curve" smooth="yes"/>
      <point x="1036.0" y="-348.0"/>
      <point x="1018.0" y="-316.0"/>
      <point x="1004.0" y="-302.0" type="curve" smooth="yes"/>
      <point x="988.0" y="-292.0"/>
      <point x="948.0" y="-244.0"/>
      <point x="948.0" y="-200.0" type="curve" smooth="yes"/>
      <point x="948.0" y="-168.0"/>
      <point x="954.0" y="-136.0"/>
      <point x="968.0" y="-80.0" type="curve" smooth="yes"/>
      <point x="1136.0" y="550.0" type="line" smooth="yes"/>
      <point x="1162.0" y="650.0"/>
      <point x="1308.0" y="692.0"/>
      <point x="1308.0" y="760.0" type="curve" smooth="yes"/>
      <point x="1308.0" y="908.0"/>
      <point x="1204.0" y="990.0"/>
      <point x="1006.0" y="990.0" type="curve" smooth="yes"/>
      <point x="470.0" y="990.0"/>
      <point x="144.0" y="678.0"/>
      <point x="144.0" y="256.0" type="curve" smooth="yes"/>
      <point x="144.0" y="64.0"/>
      <point x="246.0" y="-30.0"/>
      <point x="412.0" y="-30.0" type="curve" smooth="yes"/>
      <point x="574.0" y="-30.0"/>
      <point x="726.0" y="102.0"/>
      <point x="788.0" y="150.0" type="curve"/>
    </contour>
  </outline>
</glyph>
<glyph name="r" format="2">
  <advance width="1060"/>
  <unicode hex="0072"/>
  <outline>
    <contour>
      <point x="116" y="614" type="curve" smooth="yes"/>
      <point x="135" y="614.0"/>
      <point x="158" y="625"/>
      <point x="173" y="638" type="curve" smooth="yes"/>
      <point x="185.3587999408628" y="648.298999950719"/>
      <point x="194" y="652.0"/>
      <point x="209" y="652" type="curve" smooth="yes"/>
      <point x="231.0" y="652.0"/>
      <point x="242.0" y="633.1818181818181"/>
      <point x="242" y="606" type="curve" smooth="yes"/>
      <point x="242" y="576"/>
      <point x="234" y="548"/>
      <point x="222" y="522" type="curve" smooth="yes"/>
      <point x="122" y="308" type="line" smooth="yes"/>
      <point x="86" y="230"/>
      <point x="76" y="182"/>
      <point x="76" y="120" type="curve" smooth="yes"/>
      <point x="76" y="40"/>
      <point x="112" y="-26"/>
      <point x="220" y="-26" type="curve" smooth="yes"/>
      <point x="436" y="-26"/>
      <point x="580" y="44"/>
      <point x="580" y="148" type="curve" smooth="yes"/>
      <point x="580" y="194"/>
      <point x="542" y="226"/>
      <point x="542" y="288" type="curve" smooth="yes"/>
      <point x="542" y="352"/>
      <point x="550" y="412"/>
      <point x="586" y="506" type="curve" smooth="yes"/>
      <point x="624" y="604"/>
      <point x="654" y="650"/>
      <point x="700" y="650" type="curve" smooth="yes"/>
      <point x="736.0" y="650.0"/>
      <point x="757.0" y="629"/>
      <point x="757.0" y="595" type="curve" smooth="yes"/>
      <point x="757" y="566"/>
      <point x="751" y="542"/>
      <point x="751" y="516" type="curve" smooth="yes"/>
      <point x="751" y="486"/>
      <point x="775" y="436"/>
      <point x="851" y="436.0" type="curve" smooth="yes"/>
      <point x="974.0" y="436.0"/>
      <point x="1106.0" y="565"/>
      <point x="1106" y="742" type="curve" smooth="yes"/>
      <point x="1106" y="882"/>
      <point x="1032" y="968"/>
      <point x="914" y="968" type="curve" smooth="yes"/>
      <point x="726" y="968"/>
      <point x="556" y="730"/>
      <point x="468" y="384" type="curve"/>
      <point x="496" y="370" type="line"/>
      <point x="504" y="486"/>
      <point x="610" y="710"/>
      <point x="610" y="834" type="curve" smooth="yes"/>
      <point x="610" y="918"/>
      <point x="562" y="974"/>
      <point x="476" y="974" type="curve" smooth="yes"/>
      <point x="248.8181818181818" y="974.0"/>
      <point x="56.0" y="819.4054054054054"/>
      <point x="56" y="688" type="curve" smooth="yes"/>
      <point x="56" y="640"/>
      <point x="82" y="614"/>
    </contour>
  </outline>
</glyph>
<glyph name="v" format="2">
  <advance width="1332"/>
  <unicode hex="0076"/>
  <outline>
    <contour>
      <point x="1330.0" y="696.0" type="curve" smooth="yes"/>
      <point x="1330.0" y="880.0"/>
      <point x="1246.0" y="968.0"/>
      <point x="1104.0" y="968.0" type="curve" smooth="yes"/>
      <point x="978.0" y="968.0"/>
      <point x="900.0" y="874.0"/>
      <point x="900.0" y="752.0" type="curve" smooth="yes"/>
      <point x="900.0" y="696.0"/>
      <point x="916.0" y="652.0"/>
      <point x="942.0" y="610.0" type="curve" smooth="yes"/>
      <point x="970.0" y="568.0"/>
      <point x="976.0" y="534.0"/>
      <point x="976.0" y="462.0" type="curve" smooth="yes"/>
      <point x="976.0" y="354.0"/>
      <point x="922.0" y="288.0"/>
      <point x="842.0" y="288.0" type="curve" smooth="yes"/>
      <point x="782.0" y="288.0"/>
      <point x="738.0" y="334.0"/>
      <point x="738.0" y="428.0" type="curve" smooth="yes"/>
      <point x="738.0" y="494.0"/>
      <point x="758.0" y="578.0"/>
      <point x="788.0" y="634.0" type="curve" smooth="yes"/>
      <point x="826.0" y="712.0"/>
      <point x="858.0" y="784.0"/>
      <point x="858.0" y="840.0" type="curve" smooth="yes"/>
      <point x="858.0" y="926.0"/>
      <point x="826.0" y="968.0"/>
      <point x="754.0" y="968.0" type="curve" smooth="yes"/>
      <point x="716.0" y="968.0"/>
      <point x="688.0" y="946.0"/>
      <point x="640.0" y="946.0" type="curve" smooth="yes"/>
      <point x="598.0" y="946.0"/>
      <point x="536.0" y="962.0"/>
      <point x="414.0" y="962.0" type="curve" smooth="yes"/>
      <point x="188.0" y="962.0"/>
      <point x="6.0" y="770.0"/>
      <point x="6.0" y="534.0" type="curve" smooth="yes"/>
      <point x="6.0" y="398.0"/>
      <point x="84.0" y="324.0"/>
      <point x="196.0" y="324.0" type="curve" smooth="yes"/>
      <point x="282.0" y="324.0"/>
      <point x="358.0" y="376.0"/>
      <point x="358.0" y="490.0" type="curve" smooth="yes"/>
      <point x="358.0" y="564.0"/>
      <point x="328.0" y="598.0"/>
      <point x="264.0" y="614.0" type="curve" smooth="yes"/>
      <point x="222.0" y="624.0"/>
      <point x="206.0" y="640.0"/>
      <point x="206.0" y="664.0" type="curve" smooth="yes"/>
      <point x="206.0" y="696.0"/>
      <point x="222.0" y="718.0"/>
      <point x="260.0" y="718.0" type="curve" smooth="yes"/>
      <point x="370.0" y="718.0"/>
      <point x="512.0" y="578.0"/>
      <point x="668.0" y="578.0" type="curve"/>
      <point x="644.0" y="700.0" type="line"/>
      <point x="644.0" y="624.0"/>
      <point x="610.0" y="586.0"/>
      <point x="476.0" y="460.0" type="curve" smooth="yes"/>
      <point x="352.0" y="342.0"/>
      <point x="304.0" y="244.0"/>
      <point x="304.0" y="140.0" type="curve" smooth="yes"/>
      <point x="304.0" y="30.0"/>
      <point x="378.0" y="-26.0"/>
      <point x="502.0" y="-26.0" type="curve" smooth="yes"/>
      <point x="954.0" y="-26.0"/>
      <point x="1330.0" y="264.0"/>
    </contour>
  </outline>
</glyph>
<glyph name="w" format="2">
  <advance width="1740"/>
  <unicode hex="0077"/>
  <outline>
    <contour>
      <point x="1246.0" y="994.0" type="curve" smooth="yes"/>
      <point x="1190.0" y="994.0"/>
      <point x="1128.0" y="958.0"/>
      <point x="1074.0" y="888.0" type="curve" smooth="yes"/>
      <point x="998.0" y="776.0"/>
      <point x="936.0" y="588.0"/>
      <point x="936.0" y="334.0" type="curve" smooth="yes"/>
      <point x="936.0" y="102.0"/>
      <point x="1026.0" y="-30.0"/>
      <point x="1224.0" y="-30.0" type="curve" smooth="yes"/>
      <point x="1450.0" y="-30.0"/>
      <point x="1882.0" y="288.0"/>
      <point x="1882.0" y="696.0" type="curve" smooth="yes"/>
      <point x="1882.0" y="916.0"/>
      <point x="1802.0" y="996.0"/>
      <point x="1688.0" y="996.0" type="curve" smooth="yes"/>
      <point x="1542.0" y="996.0"/>
      <point x="1428.0" y="894.0"/>
      <point x="1428.0" y="762.0" type="curve" smooth="yes"/>
      <point x="1428.0" y="698.0"/>
      <point x="1434.0" y="654.0"/>
      <point x="1492.0" y="588.0" type="curve" smooth="yes"/>
      <point x="1520.0" y="552.0"/>
      <point x="1548.0" y="498.0"/>
      <point x="1548.0" y="382.0" type="curve" smooth="yes"/>
      <point x="1548.0" y="264.0"/>
      <point x="1484.0" y="224.0"/>
      <point x="1336.0" y="224.0" type="curve" smooth="yes"/>
      <point x="1272.0" y="224.0"/>
      <point x="1190.0" y="316.0"/>
      <point x="1198.0" y="462.0" type="curve"/>
      <point x="1046.0" y="276.0"/>
      <point x="950.0" y="214.0"/>
      <point x="824.0" y="214.0" type="curve" smooth="yes"/>
      <point x="750.0" y="214.0"/>
      <point x="714.0" y="282.0"/>
      <point x="714.0" y="366.0" type="curve" smooth="yes"/>
      <point x="714.0" y="420.0"/>
      <point x="744.0" y="476.0"/>
      <point x="854.0" y="576.0" type="curve" smooth="yes"/>
      <point x="948.0" y="696.0"/>
      <point x="946.0" y="800.0"/>
      <point x="946.0" y="878.0" type="curve" smooth="yes"/>
      <point x="946.0" y="958.0"/>
      <point x="900.0" y="994.0"/>
      <point x="818.0" y="994.0" type="curve" smooth="yes"/>
      <point x="764.0" y="994.0"/>
      <point x="726.0" y="964.0"/>
      <point x="656.0" y="964.0" type="curve" smooth="yes"/>
      <point x="622.0" y="964.0"/>
      <point x="548.0" y="1012.0"/>
      <point x="510.0" y="1012.0" type="curve" smooth="yes"/>
      <point x="292.0" y="1012.0"/>
      <point x="142.0" y="778.0"/>
      <point x="142.0" y="548.0" type="curve" smooth="yes"/>
      <point x="142.0" y="404.0"/>
      <point x="210.0" y="320.0"/>
      <point x="310.0" y="320.0" type="curve" smooth="yes"/>
      <point x="404.0" y="320.0"/>
      <point x="456.0" y="360.0"/>
      <point x="456.0" y="440.0" type="curve" smooth="yes"/>
      <point x="456.0" y="510.0"/>
      <point x="402.0" y="556.0"/>
      <point x="352.0" y="560.0" type="curve" smooth="yes"/>
      <point x="318.0" y="564.0"/>
      <point x="302.0" y="580.0"/>
      <point x="302.0" y="592.0" type="curve" smooth="yes"/>
      <point x="302.0" y="606.0"/>
      <point x="312.0" y="622.0"/>
      <point x="330.0" y="622.0" type="curve" smooth="yes"/>
      <point x="392.0" y="622.0"/>
      <point x="492.0" y="594.0"/>
      <point x="566.0" y="594.0" type="curve" smooth="yes"/>
      <point x="612.0" y="594.0"/>
      <point x="746.0" y="750.0"/>
      <point x="680.0" y="880.0" type="curve"/>
      <point x="680.0" y="676.0"/>
      <point x="590.0" y="524.0"/>
      <point x="528.0" y="492.0" type="curve" smooth="yes"/>
      <point x="294.0" y="318.0"/>
      <point x="244.0" y="276.0"/>
      <point x="244.0" y="136.0" type="curve" smooth="yes"/>
      <point x="244.0" y="40.0"/>
      <point x="356.0" y="-30.0"/>
      <point x="534.0" y="-30.0" type="curve" smooth="yes"/>
      <point x="836.0" y="-30.0"/>
      <point x="1168.0" y="212.0"/>
      <point x="1322.0" y="504.0" type="curve" smooth="yes"/>
      <point x="1370.0" y="594.0"/>
      <point x="1398.0" y="684.0"/>
      <point x="1398.0" y="768.0" type="curve" smooth="yes"/>
      <point x="1398.0" y="926.0"/>
      <point x="1338.0" y="994.0"/>
    </contour>
  </outline>
</glyph>
<glyph name="questiondown" format="2">
  <advance width="932"/>
  <unicode hex="00BF"/>
  <outline>
    <contour>
      <point x="548.0" y="164.0" type="curve" smooth="yes"/>
      <point x="408.0" y="116.0"/>
      <point x="336.0" y="72.0"/>
      <point x="284.0" y="-112.0" type="curve" smooth="yes"/>
      <point x="246.0" y="-228.0"/>
      <point x="298.0" y="-300.0"/>
      <point x="334.0" y="-300.0" type="curve" smooth="yes"/>
      <point x="390.0" y="-300.0"/>
      <point x="430.0" y="-266.0"/>
      <point x="434.0" y="-206.0" type="curve" smooth="yes"/>
      <point x="450.0" y="-84.0" type="line" smooth="yes"/>
      <point x="466.0" y="30.0"/>
      <point x="550.0" y="86.0"/>
      <point x="634.0" y="86.0" type="curve" smooth="yes"/>
      <point x="744.0" y="86.0"/>
      <point x="808.0" y="4.0"/>
      <point x="808.0" y="-120.0" type="curve" smooth="yes"/>
      <point x="808.0" y="-312.0"/>
      <point x="660.0" y="-450.0"/>
      <point x="314.0" y="-450.0" type="curve" smooth="yes"/>
      <point x="38.0" y="-450.0"/>
      <point x="-126.0" y="-302.0"/>
      <point x="-54.0" y="-94.0" type="curve" smooth="yes"/>
      <point x="-12.0" y="36.0"/>
      <point x="42.0" y="98.0"/>
      <point x="384.0" y="270.0" type="curve" smooth="yes"/>
      <point x="366.0" y="254.0"/>
      <point x="412.0" y="302.0"/>
      <point x="434.0" y="434.0" type="curve" smooth="yes"/>
      <point x="448.0" y="510.0"/>
      <point x="494.0" y="560.0"/>
      <point x="576.0" y="560.0" type="curve" smooth="yes"/>
      <point x="698.0" y="560.0"/>
      <point x="792.0" y="490.0"/>
      <point x="792.0" y="382.0" type="curve" smooth="yes"/>
      <point x="792.0" y="296.0"/>
      <point x="734.0" y="236.0"/>
    </contour>
    <contour>
      <point x="708.502" y="1003.99" type="curve" smooth="yes"/>
      <point x="529.366" y="1003.99"/>
      <point x="409.942" y="901.36"/>
      <point x="409.942" y="780.07" type="curve" smooth="yes"/>
      <point x="409.942" y="669.976"/>
      <point x="497.644" y="593.47"/>
      <point x="631.9960000000001" y="593.47" type="curve" smooth="yes"/>
      <point x="812.998" y="593.47"/>
      <point x="932.422" y="714.76"/>
      <point x="932.422" y="813.658" type="curve" smooth="yes"/>
      <point x="932.422" y="923.752"/>
      <point x="840.988" y="1003.99"/>
    </contour>
  </outline>
</glyph>
<glyph name="ellipsis" format="2">
  <advance width="2014"/>
  <unicode hex="2026"/>
  <outline>
    <contour>
      <point x="1692.0" y="-30.0" type="curve" smooth="yes"/>
      <point x="1884.0" y="-30.0"/>
      <point x="2012.0" y="80.0"/>
      <point x="2012.0" y="210.0" type="curve" smooth="yes"/>
      <point x="2012.0" y="328.0"/>
      <point x="1918.0" y="410.0"/>
      <point x="1774.0" y="410.0" type="curve" smooth="yes"/>
      <point x="1580.0" y="410.0"/>
      <point x="1452.0" y="280.0"/>
      <point x="1452.0" y="174.0" type="curve" smooth="yes"/>
      <point x="1452.0" y="56.0"/>
      <point x="1550.0" y="-30.0"/>
    </contour>
    <contour>
      <point x="326.0" y="-30.0" type="curve" smooth="yes"/>
      <point x="518.0" y="-30.0"/>
      <point x="646.0" y="80.0"/>
      <point x="646.0" y="210.0" type="curve" smooth="yes"/>
      <point x="646.0" y="328.0"/>
      <point x="552.0" y="410.0"/>
      <point x="408.0" y="410.0" type="curve" smooth="yes"/>
      <point x="214.0" y="410.0"/>
      <point x="86.0" y="280.0"/>
      <point x="86.0" y="174.0" type="curve" smooth="yes"/>
      <point x="86.0" y="56.0"/>
      <point x="184.0" y="-30.0"/>
    </contour>
    <contour>
      <point x="1010.0" y="-30.0" type="curve" smooth="yes"/>
      <point x="1202.0" y="-30.0"/>
      <point x="1330.0" y="80.0"/>
      <point x="1330.0" y="210.0" type="curve" smooth="yes"/>
      <point x="1330.0" y="328.0"/>
      <point x="1236.0" y="410.0"/>
      <point x="1092.0" y="410.0" type="curve" smooth="yes"/>
      <point x="898.0" y="410.0"/>
      <point x="770.0" y="280.0"/>
      <point x="770.0" y="174.0" type="curve" smooth="yes"/>
      <point x="770.0" y="56.0"/>
      <point x="868.0" y="-30.0"/>
    </contour>
  </outline>
</glyph>
<glyph name="b.alt" format="2">
  <advance width="1218"/>
  <outline>
    <contour>
      <point x="686.0" y="708.0" type="curve" smooth="yes"/>
      <point x="712.0" y="708.0"/>
      <point x="742.0" y="692.0"/>
      <point x="742.0" y="624.0" type="curve" smooth="yes"/>
      <point x="742.0" y="370.0"/>
      <point x="608.0" y="190.0"/>
      <point x="524.0" y="190.0" type="curve" smooth="yes"/>
      <point x="492.0" y="190.0"/>
      <point x="476.0" y="220.0"/>
      <point x="476.0" y="260.0" type="curve" smooth="yes"/>
      <point x="476.0" y="478.0"/>
      <point x="600.0" y="708.0"/>
    </contour>
    <contour>
      <point x="290.0" y="1020.0" type="curve" smooth="yes"/>
      <point x="74.0" y="362.0" type="line" smooth="yes"/>
      <point x="30.0" y="230.0"/>
      <point x="12.0" y="182.0"/>
      <point x="12.0" y="130.0" type="curve" smooth="yes"/>
      <point x="12.0" y="34.0"/>
      <point x="62.0" y="-28.0"/>
      <point x="122.0" y="-28.0" type="curve" smooth="yes"/>
      <point x="184.0" y="-28.0"/>
      <point x="220.0" y="-10.0"/>
      <point x="280.0" y="58.0" type="curve" smooth="yes"/>
      <point x="392.0" y="186.0" type="line"/>
      <point x="258.0" y="262.0" type="line"/>
      <point x="258.0" y="52.0"/>
      <point x="394.0" y="-30.0"/>
      <point x="574.0" y="-30.0" type="curve" smooth="yes"/>
      <point x="886.0" y="-30.0"/>
      <point x="1184.0" y="250.0"/>
      <point x="1184.0" y="650.0" type="curve" smooth="yes"/>
      <point x="1184.0" y="876.0"/>
      <point x="1078.0" y="964.0"/>
      <point x="918.0" y="964.0" type="curve" smooth="yes"/>
      <point x="746.0" y="964.0"/>
      <point x="616.0" y="862.0"/>
      <point x="542.0" y="700.0" type="curve"/>
      <point x="578.0" y="688.0" type="line"/>
      <point x="670.0" y="1020.0" type="line" smooth="yes"/>
      <point x="694.0" y="1102.0"/>
      <point x="710.0" y="1176.0"/>
      <point x="710.0" y="1238.0" type="curve" smooth="yes"/>
      <point x="710.0" y="1324.0"/>
      <point x="662.0" y="1402.0"/>
      <point x="532.0" y="1402.0" type="curve" smooth="yes"/>
      <point x="286.7722772277228" y="1402.0"/>
      <point x="148.0" y="1278.0"/>
      <point x="148.0" y="1178.0" type="curve" smooth="yes"/>
      <point x="148.0" y="1116.0"/>
      <point x="181.0" y="1086.0"/>
      <point x="214.0" y="1086.0" type="curve" smooth="yes"/>
      <point x="235.35897435897436" y="1086.0"/>
      <point x="243.0686982911621" y="1087.9654229262926"/>
      <point x="263.0" y="1095.0" type="curve" smooth="yes"/>
      <point x="272.9567062827021" y="1098.318902094234"/>
      <point x="280.6296296296296" y="1103.0"/>
      <point x="291.0" y="1103.0" type="curve" smooth="yes"/>
      <point x="300" y="1103.0"/>
      <point x="304.0" y="1095.842105263158"/>
      <point x="304.0" y="1086.0" type="curve" smooth="yes"/>
      <point x="304.0" y="1071.5625"/>
      <point x="302.782500515955" y="1058.9392839791592"/>
    </contour>
  </outline>
</glyph>
<glyph name="h.alt" format="2">
  <advance width="1246"/>
  <outline>
    <contour>
      <point x="682.0" y="1012.0" type="curve" smooth="yes"/>
      <point x="630.0" y="836.0"/>
      <point x="600.0" y="748.0"/>
      <point x="588.0" y="692.0" type="curve"/>
      <point x="556.0" y="698.0" type="line"/>
      <point x="680.0" y="890.0"/>
      <point x="854.0" y="956.0"/>
      <point x="996.0" y="956.0" type="curve" smooth="yes"/>
      <point x="1104.0" y="956.0"/>
      <point x="1168.0" y="888.0"/>
      <point x="1168.0" y="804.0" type="curve" smooth="yes"/>
      <point x="1168.0" y="738.0"/>
      <point x="1158.0" y="676.0"/>
      <point x="1126.0" y="602.0" type="curve" smooth="yes"/>
      <point x="1044.0" y="412.0" type="line" smooth="yes"/>
      <point x="1034.0" y="388.0"/>
      <point x="1032.0" y="374.0"/>
      <point x="1028.0" y="348.0" type="curve" smooth="yes"/>
      <point x="1026.0" y="332.0"/>
      <point x="1024.0" y="306.0"/>
      <point x="1048.0" y="306.0" type="curve" smooth="yes"/>
      <point x="1056.0" y="306.0"/>
      <point x="1058.0" y="304.0"/>
      <point x="1070.0" y="308.0" type="curve" smooth="yes"/>
      <point x="1118.0" y="334.0"/>
      <point x="1130.0" y="352.0"/>
      <point x="1160.0" y="352.0" type="curve" smooth="yes"/>
      <point x="1200.0" y="352.0"/>
      <point x="1218.0" y="320.0"/>
      <point x="1216.0" y="290.0" type="curve" smooth="yes"/>
      <point x="1214.0" y="126.0"/>
      <point x="1052.0" y="-30.0"/>
      <point x="806.0" y="-30.0" type="curve" smooth="yes"/>
      <point x="670.0" y="-30.0"/>
      <point x="590.0" y="26.0"/>
      <point x="594.0" y="168.0" type="curve" smooth="yes"/>
      <point x="598.0" y="216.0"/>
      <point x="614.0" y="266.0"/>
      <point x="632.0" y="318.0" type="curve" smooth="yes"/>
      <point x="684.0" y="466.0" type="line" smooth="yes"/>
      <point x="696.0" y="500.0"/>
      <point x="706.0" y="544.0"/>
      <point x="706.0" y="564.0" type="curve" smooth="yes"/>
      <point x="706.0" y="590.0"/>
      <point x="690.0" y="608.0"/>
      <point x="674.0" y="608.0" type="curve" smooth="yes"/>
      <point x="578.0" y="608.0"/>
      <point x="518.0" y="508.0"/>
      <point x="474.0" y="354.0" type="curve" smooth="yes"/>
      <point x="468.0" y="332.0"/>
      <point x="462.0" y="298.0"/>
      <point x="462.0" y="274.0" type="curve" smooth="yes"/>
      <point x="462.0" y="218.0"/>
      <point x="484.0" y="188.0"/>
      <point x="484.0" y="140.0" type="curve" smooth="yes"/>
      <point x="484.0" y="38.0"/>
      <point x="334.0" y="-30.0"/>
      <point x="176.0" y="-30.0" type="curve" smooth="yes"/>
      <point x="62.0" y="-30.0"/>
      <point x="8.0" y="14.0"/>
      <point x="8.0" y="110.0" type="curve" smooth="yes"/>
      <point x="8.0" y="142.0"/>
      <point x="6.0" y="186.0"/>
      <point x="36.0" y="272.0" type="curve" smooth="yes"/>
      <point x="292.0" y="1012.0" type="line" smooth="yes"/>
      <point x="302.0" y="1038.0"/>
      <point x="312.0" y="1062.0"/>
      <point x="312.0" y="1076.0" type="curve" smooth="yes"/>
      <point x="312.0" y="1088.0"/>
      <point x="304.0" y="1098.0"/>
      <point x="294.0" y="1098.0" type="curve" smooth="yes"/>
      <point x="284.0" y="1098.0"/>
      <point x="274.0" y="1092.0"/>
      <point x="262.0" y="1082.0" type="curve" smooth="yes"/>
      <point x="248.0" y="1070.0"/>
      <point x="234.0" y="1068.0"/>
      <point x="212.0" y="1068.0" type="curve" smooth="yes"/>
      <point x="174.0" y="1068.0"/>
      <point x="136.0" y="1100.0"/>
      <point x="136.0" y="1162.0" type="curve" smooth="yes"/>
      <point x="136.0" y="1264.0"/>
      <point x="280.0" y="1394.0"/>
      <point x="538.0" y="1394.0" type="curve" smooth="yes"/>
      <point x="668.0" y="1394.0"/>
      <point x="718.0" y="1316.0"/>
      <point x="718.0" y="1230.0" type="curve" smooth="yes"/>
      <point x="718.0" y="1168.0"/>
      <point x="708.0" y="1094.0"/>
    </contour>
  </outline>
</glyph>
<glyph name="v.alt" format="2">
  <advance width="1152"/>
  <outline>
    <contour>
      <point x="212.0" y="112.0" type="curve" smooth="yes"/>
      <point x="212.0" y="238.0"/>
      <point x="210.0" y="392.0"/>
      <point x="212" y="521" type="curve" smooth="yes"/>
      <point x="212.0" y="550.3877551020408"/>
      <point x="214" y="571"/>
      <point x="206.0" y="581.0" type="curve" smooth="yes"/>
      <point x="200" y="588"/>
      <point x="186.5607483725544" y="586.1004677328465"/>
      <point x="180.0" y="582.0" type="curve" smooth="yes"/>
      <point x="171" y="577"/>
      <point x="166.575901284427" y="568.3874129663945"/>
      <point x="158.0" y="556.0" type="curve" smooth="yes"/>
      <point x="146.13574012641112" y="538.7428947293253"/>
      <point x="135" y="531"/>
      <point x="118.0" y="522.0" type="curve" smooth="yes"/>
      <point x="84" y="504"/>
      <point x="34" y="524"/>
      <point x="12.0" y="588.0" type="curve" smooth="yes"/>
      <point x="-22" y="684"/>
      <point x="77" y="851"/>
      <point x="279" y="929" type="curve" smooth="yes"/>
      <point x="432" y="988"/>
      <point x="542.0" y="940.0"/>
      <point x="570.0" y="860.0" type="curve" smooth="yes"/>
      <point x="594.0" y="798.0"/>
      <point x="600.0" y="720.0"/>
      <point x="598.0" y="636.0" type="curve" smooth="yes"/>
      <point x="598.0" y="572.0"/>
      <point x="596.0" y="450.0"/>
      <point x="596.0" y="360.0" type="curve" smooth="yes"/>
      <point x="596.0" y="312.0"/>
      <point x="616.0" y="288.0"/>
      <point x="654.0" y="288.0" type="curve" smooth="yes"/>
      <point x="704.0" y="288.0"/>
      <point x="782.0" y="394.0"/>
      <point x="782.0" y="540.0" type="curve" smooth="yes"/>
      <point x="782.0" y="592.0"/>
      <point x="774.0" y="608.0"/>
      <point x="748.0" y="650.0" type="curve" smooth="yes"/>
      <point x="726.0" y="682.0"/>
      <point x="706.0" y="712.0"/>
      <point x="706.0" y="752.0" type="curve" smooth="yes"/>
      <point x="706.0" y="874.0"/>
      <point x="794.0" y="968.0"/>
      <point x="936.0" y="968.0" type="curve" smooth="yes"/>
      <point x="1064.0" y="968.0"/>
      <point x="1136.0" y="906.0"/>
      <point x="1136.0" y="774.0" type="curve" smooth="yes"/>
      <point x="1136.0" y="328.0"/>
      <point x="724.0" y="-26.0"/>
      <point x="346.0" y="-26.0" type="curve" smooth="yes"/>
      <point x="264.0" y="-26.0"/>
      <point x="212.0" y="16.0"/>
    </contour>
  </outline>
</glyph>
